<?xml version="1.0" standalone="no"?>
<!DOCTYPE svg PUBLIC "-//W3C//DTD SVG 20010904//EN"
 "http://www.w3.org/TR/2001/REC-SVG-20010904/DTD/svg10.dtd">
<svg version="1.0" xmlns="http://www.w3.org/2000/svg"
 width="1024.000000pt" height="1024.000000pt" viewBox="0 0 1024.000000 1024.000000"
 preserveAspectRatio="xMidYMid meet">

<g transform="translate(0.000000,1024.000000) scale(0.100000,-0.100000)"
fill="#000000" stroke="none">
<path d="M4546 9179 c-319 -34 -592 -147 -823 -341 -82 -68 -168 -161 -231
-249 l-33 -46 -102 -6 c-309 -19 -577 -131 -782 -329 -135 -129 -207 -250
-247 -417 -17 -72 -19 -106 -15 -206 4 -66 13 -147 22 -180 38 -137 113 -262
222 -371 84 -82 159 -134 277 -190 116 -55 221 -82 367 -96 l117 -11 7 -106
c3 -58 13 -180 20 -271 11 -124 12 -182 4 -233 -6 -38 -9 -135 -7 -215 3 -139
5 -150 31 -196 l27 -49 -57 -71 c-208 -256 -422 -666 -566 -1081 l-56 -160
-96 -98 c-327 -335 -595 -774 -690 -1129 -74 -278 -50 -481 72 -588 88 -78
240 -92 387 -36 37 14 70 26 72 26 2 0 4 -87 4 -193 0 -334 27 -497 111 -657
177 -342 613 -520 1270 -520 277 0 659 41 1017 110 l104 19 171 -29 c415 -71
701 -101 967 -102 296 -1 521 40 700 128 78 39 110 62 176 128 140 141 198
291 230 590 17 167 23 557 10 777 l-8 135 138 12 c76 6 140 10 141 8 1 -1 -11
-49 -27 -107 -48 -168 -37 -250 45 -331 92 -91 233 -90 327 3 53 53 50 42 120
356 30 134 56 233 63 233 6 0 47 17 91 39 144 69 249 192 295 344 30 95 24
229 -13 307 -33 71 -94 140 -152 171 -25 13 -46 27 -46 31 0 4 22 110 49 235
84 390 109 434 341 605 279 206 431 628 344 953 -63 237 -263 405 -482 405
-135 0 -259 -52 -372 -157 -225 -208 -319 -568 -235 -894 9 -35 39 -115 66
-177 60 -139 75 -218 59 -331 -9 -68 -132 -517 -145 -530 -7 -7 -214 19 -319
41 -137 27 -312 81 -407 125 -71 32 -80 39 -89 72 -5 20 -10 41 -10 47 0 17
-86 311 -125 430 -128 383 -310 726 -507 954 l-73 85 23 45 c12 24 22 62 22
83 0 63 -41 329 -56 366 -8 18 -14 58 -14 87 0 62 -27 480 -35 539 l-6 41 78
23 c167 48 312 139 439 273 297 316 323 791 60 1109 -95 115 -260 224 -426
279 -154 52 -225 62 -438 65 l-202 4 -68 61 c-133 122 -312 226 -499 288 -115
39 -211 59 -348 72 -123 11 -164 11 -279 -1z m407 -140 c201 -37 396 -123 563
-247 49 -37 144 -122 212 -190 67 -68 122 -121 122 -118 0 3 -11 36 -25 72
-14 37 -23 69 -20 72 12 12 154 13 260 2 349 -36 615 -187 724 -412 53 -109
71 -190 71 -319 0 -182 -57 -338 -175 -481 -104 -127 -289 -246 -437 -282 -26
-6 -26 -6 -32 62 -4 37 -9 92 -11 123 l-6 55 53 17 c93 29 260 144 289 199 11
20 11 20 -20 -1 -54 -39 -215 -110 -281 -125 -36 -7 -94 -17 -130 -20 l-65 -5
30 22 c61 45 119 103 156 159 22 31 39 60 39 63 0 4 -29 -20 -66 -53 -71 -66
-186 -131 -278 -157 -84 -25 -166 -16 -311 33 -66 22 -153 46 -192 53 l-73 12
105 109 c58 59 105 113 105 118 0 5 -39 -19 -87 -55 -98 -72 -348 -202 -463
-239 -270 -88 -574 -98 -852 -27 -116 30 -276 103 -365 167 -13 10 -23 12 -23
6 0 -16 117 -127 178 -169 29 -20 49 -40 45 -44 -5 -3 -26 -12 -48 -19 -22 -7
-125 -54 -230 -106 -104 -51 -230 -106 -280 -120 -80 -24 -107 -27 -240 -28
-130 0 -158 3 -209 22 -33 12 -61 20 -63 18 -13 -12 117 -87 187 -107 25 -7
49 -16 53 -20 11 -8 -47 -28 -128 -44 l-60 -12 59 -8 c65 -8 183 7 230 31 16
8 30 13 31 12 1 -2 5 -45 8 -95 l6 -93 -72 0 c-131 0 -291 46 -425 122 -100
56 -244 198 -290 285 -125 238 -117 502 22 712 150 225 447 386 779 422 54 6
101 9 104 6 3 -3 -4 -46 -16 -95 -30 -129 -26 -137 23 -46 160 297 357 501
613 632 285 145 587 189 906 131z m441 -1584 c48 -9 138 -32 199 -52 100 -33
124 -38 222 -39 117 -1 161 -12 233 -58 48 -30 43 1 72 -436 11 -168 23 -343
26 -389 6 -78 5 -83 -12 -78 -11 3 -33 8 -51 12 l-31 6 -17 117 c-25 167 -34
176 -35 37 0 -66 -4 -126 -8 -132 -6 -9 -22 -10 -60 -4 -29 4 -56 11 -60 15
-4 4 -19 123 -33 264 l-26 257 -3 -130 c-5 -277 -14 -390 -30 -387 -8 2 -112
5 -230 7 l-215 3 -20 174 -21 173 -7 -70 c-4 -38 -7 -118 -7 -176 l0 -106
-152 -13 c-245 -20 -254 -28 -33 -29 406 -2 877 -55 1041 -116 l40 -15 23
-155 c20 -130 21 -160 11 -186 -13 -30 -44 -54 -59 -45 -15 10 -313 45 -461
56 -186 13 -567 13 -785 0 -449 -27 -863 -87 -1230 -179 -114 -29 -163 -37
-176 -30 -29 15 -35 64 -29 224 l5 150 68 27 c220 88 585 180 922 232 87 14
88 14 33 15 -31 1 -59 5 -62 10 -3 5 -17 95 -31 201 -14 106 -27 195 -29 197
-2 2 -1 -88 2 -201 l5 -204 -44 -6 c-24 -3 -107 -12 -184 -21 -77 -9 -169 -23
-205 -30 -35 -7 -68 -11 -72 -9 -4 3 -8 20 -9 37 0 18 -18 149 -39 292 l-39
260 4 -160 c3 -88 6 -225 7 -305 l1 -145 -64 -17 c-102 -26 -94 -32 -114 95
-27 166 -34 168 -34 10 l-1 -141 -51 -17 c-28 -9 -53 -14 -56 -11 -7 7 -14 86
-43 492 -12 166 -20 314 -18 329 3 25 9 29 78 47 45 11 151 56 265 112 182 90
254 119 375 150 48 12 62 12 112 0 135 -35 420 -34 592 1 79 16 231 66 276 91
34 18 167 18 274 -1z m3209 -1420 c99 -49 174 -140 218 -265 20 -54 23 -85 23
-185 -1 -297 -124 -533 -374 -717 -95 -69 -176 -157 -217 -234 -41 -76 -70
-179 -123 -434 l-43 -206 -56 -1 c-31 -1 -70 -7 -85 -13 -16 -6 -31 -9 -33 -7
-2 3 30 118 72 256 42 139 83 286 91 328 29 153 12 270 -62 435 -68 151 -86
230 -86 373 -1 334 164 608 417 692 68 22 189 12 258 -22z m-2848 -205 c72 -6
192 -20 268 -30 138 -18 139 -18 179 -56 265 -257 501 -750 658 -1376 233
-924 311 -2194 164 -2640 -79 -240 -269 -367 -624 -419 -180 -27 -518 -14
-860 32 -241 32 -239 26 -25 80 105 27 228 56 274 65 220 45 -161 43 -474 -1
-60 -9 -183 -29 -272 -46 -641 -117 -1083 -162 -1376 -139 -470 35 -787 167
-933 387 -94 142 -124 306 -124 676 l0 256 77 58 c155 116 339 309 429 450 57
90 97 164 91 170 -11 10 -194 -142 -387 -322 -276 -256 -456 -365 -607 -365
-79 0 -121 24 -153 86 -23 44 -25 59 -24 169 1 141 27 250 100 428 164 401
599 960 863 1110 23 14 38 28 32 31 -5 4 -40 4 -75 0 l-66 -7 29 84 c116 342
351 781 551 1031 l62 77 186 45 c396 96 777 150 1227 176 183 10 633 5 810
-10z m1410 -1746 c133 -47 309 -90 475 -114 74 -11 138 -20 141 -20 14 0 -20
-77 -49 -110 -73 -88 -113 -223 -92 -317 10 -43 7 -62 -41 -233 -29 -102 -55
-188 -59 -193 -9 -11 -98 -24 -222 -32 l-106 -7 -6 53 c-4 30 -13 117 -22 194
-26 240 -93 680 -121 793 -3 12 -4 22 -2 22 2 0 49 -16 104 -36z m1003 -241
c128 -61 166 -237 87 -399 -32 -64 -101 -143 -148 -169 -32 -17 -41 -17 -91
-6 -32 7 -81 29 -116 53 -122 81 -173 212 -135 343 23 81 115 174 195 198 70
21 138 14 208 -20z m-398 -567 c19 -19 61 -49 94 -65 32 -17 53 -31 46 -31 -6
0 -9 -4 -5 -9 6 -10 -26 -174 -81 -416 -29 -126 -39 -154 -62 -178 -75 -75
-212 -16 -212 92 0 18 36 160 81 315 45 154 83 291 86 304 7 29 11 28 53 -12z"/>
<path d="M8354 5981 c-111 -27 -218 -123 -283 -255 -97 -195 -108 -479 -24
-644 50 -99 155 -172 243 -171 l45 1 -38 9 c-46 11 -93 34 -103 51 -5 8 0 7
11 -2 10 -8 5 4 -13 28 -58 81 -81 285 -47 417 27 103 103 242 170 311 105
106 232 133 326 69 50 -35 65 -57 95 -138 26 -71 29 -62 10 43 -16 88 -67 183
-124 230 -62 52 -175 73 -268 51z"/>
<path d="M4414 5151 c-50 -30 -84 -110 -84 -195 0 -94 14 -139 57 -186 57 -63
125 -66 182 -8 47 48 64 103 59 195 -8 168 -108 259 -214 194z"/>
<path d="M5954 5152 c-62 -40 -94 -109 -94 -207 0 -217 184 -306 280 -135 21
38 25 58 25 130 0 71 -4 93 -25 134 -14 28 -37 58 -51 69 -39 28 -98 32 -135
9z"/>
<path d="M4756 4595 c-126 -45 -153 -187 -67 -361 68 -138 200 -262 333 -315
67 -26 184 -49 251 -49 216 1 435 139 534 336 71 142 77 252 18 322 -55 66
-113 73 -338 46 -156 -19 -309 -15 -497 16 -146 23 -181 24 -234 5z"/>
</g>
</svg>
